<svg id="Layer_1" data-name="Layer 1" xmlns="http://www.w3.org/2000/svg" viewBox="0 0 197.10001 197.10001"><defs><style>.cls-1{fill:#f1897f;}.cls-2{fill:#fff;}</style></defs><circle class="cls-1" cx="98.55" cy="98.55" r="98.55"/><path class="cls-2" d="M154.41267,130.28053c-.61326-1.25907-5.45283-4.2642-5.45283-4.2642-1.90716-1.21745-15.94969-10.08037-18.628-11.3797-2.29277-1.11314-4.88931-2.37645-7.698.9665-2.13942,2.52553-8.20276,8.23329-10.17026,10.02685-1.38262,1.26661-2.55681,1.60169-5.138-.05607-.43257-.271-13.02663-7.341-21.2665-16.38115A84.38817,84.38817,0,0,1,72.44735,88.08054c-1.02324-2.24737-.10094-3.14172,1.60791-4.52086,1.05174-.82553,5.77817-5.434,6.16256-5.88378.7757-.9428,2.229-3.25007,2.229-3.25007a6.214,6.214,0,0,0,.40941-5.84174c-.38049-.99283-6.00637-20.12085-6.54437-21.92154-1.60873-5.4056-3.89265-5.92452-6.11813-6.03649-1.08487-.0387-11.1526-1.04705-14.73478,2.08461l-.62764.53684A32.109,32.109,0,0,0,42.58518,65.85005a36.424,36.424,0,0,0,.44146,10.07645A64.98325,64.98325,0,0,0,51.223,97.02929c.09178.149,6.34782,11.1636,9.57154,15.799,10.19346,14.66014,22.27355,25.97932,34.97915,32.59545,16.23459,8.4528,23.30684,10.74718,27.415,11.19063a61.50506,61.50506,0,0,0,6.508-.30046c5.22671.09466,18.22984-4.98863,21.5902-11.91408C154.46956,137.85676,155.16107,131.9086,154.41267,130.28053Z"/></svg>