<?xml version="1.0" encoding="utf-8"?>
<!-- Generator: Adobe Illustrator 24.3.0, SVG Export Plug-In . SVG Version: 6.00 Build 0)  -->
<svg version="1.1" id="Layer_1" xmlns="http://www.w3.org/2000/svg" xmlns:xlink="http://www.w3.org/1999/xlink" x="0px" y="0px"
	 viewBox="0 0 2500 165" style="enable-background:new 0 0 2500 165;" xml:space="preserve">
<style type="text/css">
	.st0{enable-background:new    ;}
	.st1{fill:#FCE482;}
	.st2{fill:none;stroke:#F0877F;stroke-width:4;stroke-miterlimit:10;}
</style>
<g class="st0">
	<path class="st1" d="M52.1,69.2h31.5v14.1H52.1v40.9H36.9V24.7h51.7L91,38.8H52.1V69.2z"/>
	<path class="st1" d="M137,59.5V73c-13.3,0-20.4,6.4-20.4,19.9v31.2h-14.3V61.6l13.5-2v10.5C119.8,63.2,126.8,59.5,137,59.5z"/>
	<path class="st1" d="M143.4,92.4c0-18.9,15.1-33.4,34.4-33.4c19.2,0,34.2,14.5,34.2,33.4c0,18.7-15.1,33.2-34.2,33.2
		C158.5,125.7,143.4,111.2,143.4,92.4z M198.1,92.3c0-11.6-8.8-20.6-20.3-20.6c-11.6,0-20.3,8.9-20.3,20.6
		c0,11.8,8.7,20.7,20.3,20.7C189.3,113,198.1,104.1,198.1,92.3z"/>
	<path class="st1" d="M320.8,84.5v39.6h-14.3V86c0-9.4-5-14.3-12.1-14.3c-7.8,0-13.3,6-13.3,15.5v36.9h-14.5V86
		c0-9.4-5-14.3-12.1-14.3c-7.7,0-13.3,6-13.3,15.5v36.9h-14.3V61.6l13.8-2.1v8.2c4.3-5.5,10.5-8.7,17.9-8.7
		c8.1,0,14.6,3.7,18.5,10.5c4.5-6.7,11.9-10.5,20.7-10.5C311.7,59.1,320.8,68.6,320.8,84.5z"/>
	<path class="st1" d="M363.8,92.4c0-18.9,15.1-33.4,34.4-33.4c19.2,0,34.2,14.5,34.2,33.4c0,18.7-15.1,33.2-34.2,33.2
		C378.8,125.7,363.8,111.2,363.8,92.4z M418.5,92.3c0-11.6-8.8-20.6-20.3-20.6c-11.6,0-20.3,8.9-20.3,20.6
		c0,11.8,8.7,20.7,20.3,20.7C409.7,113,418.5,104.1,418.5,92.3z"/>
	<path class="st1" d="M503.5,59.5v64.8h-13.8V117c-4.7,5.5-11.5,8.7-19.5,8.7c-14.6,0-24.3-9.9-24.3-26.4V61.6l14.3-2.1v38.1
		c0,9.9,5.7,15.3,13.8,15.3c8.8,0,15.1-6.4,15.1-16.3V61.6L503.5,59.5z"/>
	<path class="st1" d="M557.9,59.5V73c-13.3,0-20.4,6.4-20.4,19.9v31.2h-14.3V61.6l13.5-2v10.5C540.7,63.2,547.7,59.5,557.9,59.5z"/>
	<path class="st1" d="M593.4,92.3c0-18.6,15.1-33.2,34.2-33.2c5.5,0,11.2,1.3,16.6,3.7l-2.1,12.9c-4.5-2.6-9.2-4-14.1-4
		c-11.9,0-20.4,9.1-20.4,20.6s8.5,20.7,20.6,20.7c5.3,0,10.1-1.7,14.6-4.3l2.1,12.9c-5.4,2.6-11.2,4-17.3,4
		C608.6,125.7,593.4,110.9,593.4,92.3z"/>
	<path class="st1" d="M653,92.4c0-18.9,15.1-33.4,34.4-33.4c19.2,0,34.2,14.5,34.2,33.4c0,18.7-15.1,33.2-34.2,33.2
		C668.1,125.7,653,111.2,653,92.4z M707.7,92.3c0-11.6-8.8-20.6-20.3-20.6c-11.6,0-20.3,8.9-20.3,20.6c0,11.8,8.7,20.7,20.3,20.7
		C698.9,113,707.7,104.1,707.7,92.3z"/>
	<path class="st1" d="M830.4,84.5v39.6h-14.3V86c0-9.4-5-14.3-12.1-14.3c-7.8,0-13.3,6-13.3,15.5v36.9h-14.5V86
		c0-9.4-5-14.3-12.1-14.3c-7.7,0-13.3,6-13.3,15.5v36.9h-14.3V61.6l13.8-2.1v8.2c4.3-5.5,10.5-8.7,17.9-8.7
		c8.1,0,14.6,3.7,18.5,10.5c4.5-6.7,11.9-10.5,20.7-10.5C821.3,59.1,830.4,68.6,830.4,84.5z"/>
	<path class="st1" d="M943,84.5v39.6h-14.3V86c0-9.4-5-14.3-12.1-14.3c-7.8,0-13.3,6-13.3,15.5v36.9h-14.5V86
		c0-9.4-5-14.3-12.1-14.3c-7.7,0-13.3,6-13.3,15.5v36.9H849V61.6l13.8-2.1v8.2c4.3-5.5,10.5-8.7,17.9-8.7c8.1,0,14.6,3.7,18.5,10.5
		c4.5-6.7,11.9-10.5,20.7-10.5C933.9,59.1,943,68.6,943,84.5z"/>
	<path class="st1" d="M1018,59.5v64.8h-13.8V117c-4.7,5.5-11.5,8.7-19.5,8.7c-14.6,0-24.3-9.9-24.3-26.4V61.6l14.3-2.1v38.1
		c0,9.9,5.7,15.3,13.8,15.3c8.8,0,15.1-6.4,15.1-16.3V61.6L1018,59.5z"/>
	<path class="st1" d="M1095.5,85.5v38.6h-14.3V87.2c0-10.1-5.7-15.5-13.9-15.5c-8.9,0-15.3,6.4-15.3,16.5v35.9h-14.3V61.6l13.8-2.1
		v8.2c4.7-5.5,11.6-8.7,19.7-8.7C1085.9,59.1,1095.5,69,1095.5,85.5z"/>
	<path class="st1" d="M1112.3,37.2c0-5.1,4.1-9.1,9.4-9.1s9.4,4,9.4,9.1c0,5.1-4.1,9.1-9.4,9.1S1112.3,42.3,1112.3,37.2z
		 M1114.5,61.8l14.3-2.3v64.6h-14.3V61.8z"/>
	<path class="st1" d="M1165.7,72.8v30.2c0,6,3.3,9.4,8.8,9.4c3,0,6.5-1,8.7-1.8v12.5c-2.6,1.1-6.8,2.1-11.4,2.1
		c-12.9,0-20.4-7.8-20.4-20.7V72.8h-9.7l2.1-12.2h7.5V47.7l14.3-7.8v20.7h17.5v12.2H1165.7z"/>
	<path class="st1" d="M1256.5,60.6l-44.3,95.4h-15.5l19.2-38.3l-26.1-57.1h15.5l17.9,42l17.9-42H1256.5z"/>
	<path class="st1" d="M1262.5,103.5h15.9l-15.2,41.3l-13.8,2L1262.5,103.5z"/>
	<path class="st1" d="M1340.5,48v12.6h13.8v12.2h-13.8v51.3H1326V72.8h-9.4l2.1-12.2h7.2V47.3c0-16.8,9.9-26.1,27-26.1h1.8v12.9
		h-1.7C1345,34.1,1340.5,38.8,1340.5,48z"/>
	<path class="st1" d="M1360.9,92.4c0-18.9,15.1-33.4,34.4-33.4c19.2,0,34.2,14.5,34.2,33.4c0,18.7-15.1,33.2-34.2,33.2
		C1376,125.7,1360.9,111.2,1360.9,92.4z M1415.6,92.3c0-11.6-8.8-20.6-20.3-20.6c-11.6,0-20.3,8.9-20.3,20.6
		c0,11.8,8.7,20.7,20.3,20.7C1406.8,113,1415.6,104.1,1415.6,92.3z"/>
	<path class="st1" d="M1479.1,59.5V73c-13.3,0-20.4,6.4-20.4,19.9v31.2h-14.3V61.6l13.5-2v10.5C1461.9,63.2,1468.8,59.5,1479.1,59.5
		z"/>
	<path class="st1" d="M1514.5,92.4c0-18.9,15.1-33.4,34.4-33.4c19.2,0,34.2,14.5,34.2,33.4c0,18.7-15.1,33.2-34.2,33.2
		C1529.6,125.7,1514.5,111.2,1514.5,92.4z M1569.2,92.3c0-11.6-8.8-20.6-20.3-20.6c-11.6,0-20.3,8.9-20.3,20.6
		c0,11.8,8.7,20.7,20.3,20.7C1560.4,113,1569.2,104.1,1569.2,92.3z"/>
	<path class="st1" d="M1654.3,59.5v64.8h-13.8V117c-4.7,5.5-11.5,8.7-19.5,8.7c-14.6,0-24.3-9.9-24.3-26.4V61.6l14.3-2.1v38.1
		c0,9.9,5.7,15.3,13.8,15.3c8.8,0,15.1-6.4,15.1-16.3V61.6L1654.3,59.5z"/>
	<path class="st1" d="M1708.7,59.5V73c-13.3,0-20.4,6.4-20.4,19.9v31.2h-14.3V61.6l13.5-2v10.5C1691.5,63.2,1698.4,59.5,1708.7,59.5
		z"/>
	<path class="st1" d="M1744.2,92.3c0-18.6,15.1-33.2,34.2-33.2c5.5,0,11.2,1.3,16.6,3.7l-2.1,12.9c-4.5-2.6-9.2-4-14.1-4
		c-11.9,0-20.4,9.1-20.4,20.6s8.5,20.7,20.6,20.7c5.3,0,10.1-1.7,14.6-4.3l2.1,12.9c-5.4,2.6-11.2,4-17.3,4
		C1759.4,125.7,1744.2,110.9,1744.2,92.3z"/>
	<path class="st1" d="M1803.8,92.4c0-18.9,15.1-33.4,34.4-33.4c19.2,0,34.2,14.5,34.2,33.4c0,18.7-15.1,33.2-34.2,33.2
		C1818.9,125.7,1803.8,111.2,1803.8,92.4z M1858.5,92.3c0-11.6-8.8-20.6-20.3-20.6c-11.6,0-20.3,8.9-20.3,20.6
		c0,11.8,8.7,20.7,20.3,20.7C1849.7,113,1858.5,104.1,1858.5,92.3z"/>
	<path class="st1" d="M1981.2,84.5v39.6h-14.3V86c0-9.4-5-14.3-12.1-14.3c-7.8,0-13.3,6-13.3,15.5v36.9h-14.5V86
		c0-9.4-5-14.3-12.1-14.3c-7.7,0-13.3,6-13.3,15.5v36.9h-14.3V61.6l13.8-2.1v8.2c4.3-5.5,10.5-8.7,17.9-8.7
		c8.1,0,14.6,3.7,18.5,10.5c4.5-6.7,11.9-10.5,20.7-10.5C1972.1,59.1,1981.2,68.6,1981.2,84.5z"/>
	<path class="st1" d="M2093.8,84.5v39.6h-14.3V86c0-9.4-5-14.3-12.1-14.3c-7.8,0-13.3,6-13.3,15.5v36.9h-14.5V86
		c0-9.4-5-14.3-12.1-14.3c-7.7,0-13.3,6-13.3,15.5v36.9h-14.3V61.6l13.8-2.1v8.2c4.3-5.5,10.5-8.7,17.9-8.7
		c8.1,0,14.6,3.7,18.5,10.5c4.5-6.7,11.9-10.5,20.7-10.5C2084.7,59.1,2093.8,68.6,2093.8,84.5z"/>
	<path class="st1" d="M2168.7,59.5v64.8H2155V117c-4.7,5.5-11.5,8.7-19.5,8.7c-14.6,0-24.3-9.9-24.3-26.4V61.6l14.3-2.1v38.1
		c0,9.9,5.7,15.3,13.8,15.3c8.8,0,15.1-6.4,15.1-16.3V61.6L2168.7,59.5z"/>
	<path class="st1" d="M2246.3,85.5v38.6h-14.3V87.2c0-10.1-5.7-15.5-13.9-15.5c-8.9,0-15.3,6.4-15.3,16.5v35.9h-14.3V61.6l13.8-2.1
		v8.2c4.7-5.5,11.6-8.7,19.7-8.7C2236.6,59.1,2246.3,69,2246.3,85.5z"/>
	<path class="st1" d="M2263,37.2c0-5.1,4.1-9.1,9.4-9.1s9.4,4,9.4,9.1c0,5.1-4.1,9.1-9.4,9.1S2263,42.3,2263,37.2z M2265.3,61.8
		l14.3-2.3v64.6h-14.3V61.8z"/>
	<path class="st1" d="M2316.4,72.8v30.2c0,6,3.3,9.4,8.8,9.4c3,0,6.5-1,8.7-1.8v12.5c-2.6,1.1-6.8,2.1-11.4,2.1
		c-12.9,0-20.4-7.8-20.4-20.7V72.8h-9.7l2.1-12.2h7.5V47.7l14.3-7.8v20.7h17.5v12.2H2316.4z"/>
	<path class="st1" d="M2407.3,60.6l-44.3,95.4h-15.5l19.2-38.3l-26.1-57.1h15.5l17.9,42l17.9-42H2407.3z"/>
	<path class="st1" d="M2406.7,115.2c0-5.8,4.8-10.4,10.6-10.4c6,0,10.7,4.5,10.7,10.4c0,5.8-4.7,10.2-10.7,10.2
		C2411.6,125.4,2406.7,121,2406.7,115.2z"/>
</g>
<g class="st0">
	<path class="st2" d="M52.1,69.2h31.5v14.1H52.1v40.9H36.9V24.7h51.7L91,38.8H52.1V69.2z"/>
	<path class="st2" d="M137,59.5V73c-13.3,0-20.4,6.4-20.4,19.9v31.2h-14.3V61.6l13.5-2v10.5C119.8,63.2,126.8,59.5,137,59.5z"/>
	<path class="st2" d="M143.4,92.4c0-18.9,15.1-33.4,34.4-33.4c19.2,0,34.2,14.5,34.2,33.4c0,18.7-15.1,33.2-34.2,33.2
		C158.5,125.7,143.4,111.2,143.4,92.4z M198.1,92.3c0-11.6-8.8-20.6-20.3-20.6c-11.6,0-20.3,8.9-20.3,20.6
		c0,11.8,8.7,20.7,20.3,20.7C189.3,113,198.1,104.1,198.1,92.3z"/>
	<path class="st2" d="M320.8,84.5v39.6h-14.3V86c0-9.4-5-14.3-12.1-14.3c-7.8,0-13.3,6-13.3,15.5v36.9h-14.5V86
		c0-9.4-5-14.3-12.1-14.3c-7.7,0-13.3,6-13.3,15.5v36.9h-14.3V61.6l13.8-2.1v8.2c4.3-5.5,10.5-8.7,17.9-8.7
		c8.1,0,14.6,3.7,18.5,10.5c4.5-6.7,11.9-10.5,20.7-10.5C311.7,59.1,320.8,68.6,320.8,84.5z"/>
	<path class="st2" d="M363.8,92.4c0-18.9,15.1-33.4,34.4-33.4c19.2,0,34.2,14.5,34.2,33.4c0,18.7-15.1,33.2-34.2,33.2
		C378.8,125.7,363.8,111.2,363.8,92.4z M418.5,92.3c0-11.6-8.8-20.6-20.3-20.6c-11.6,0-20.3,8.9-20.3,20.6
		c0,11.8,8.7,20.7,20.3,20.7C409.7,113,418.5,104.1,418.5,92.3z"/>
	<path class="st2" d="M503.5,59.5v64.8h-13.8V117c-4.7,5.5-11.5,8.7-19.5,8.7c-14.6,0-24.3-9.9-24.3-26.4V61.6l14.3-2.1v38.1
		c0,9.9,5.7,15.3,13.8,15.3c8.8,0,15.1-6.4,15.1-16.3V61.6L503.5,59.5z"/>
	<path class="st2" d="M557.9,59.5V73c-13.3,0-20.4,6.4-20.4,19.9v31.2h-14.3V61.6l13.5-2v10.5C540.7,63.2,547.7,59.5,557.9,59.5z"/>
	<path class="st2" d="M593.4,92.3c0-18.6,15.1-33.2,34.2-33.2c5.5,0,11.2,1.3,16.6,3.7l-2.1,12.9c-4.5-2.6-9.2-4-14.1-4
		c-11.9,0-20.4,9.1-20.4,20.6s8.5,20.7,20.6,20.7c5.3,0,10.1-1.7,14.6-4.3l2.1,12.9c-5.4,2.6-11.2,4-17.3,4
		C608.6,125.7,593.4,110.9,593.4,92.3z"/>
	<path class="st2" d="M653,92.4c0-18.9,15.1-33.4,34.4-33.4c19.2,0,34.2,14.5,34.2,33.4c0,18.7-15.1,33.2-34.2,33.2
		C668.1,125.7,653,111.2,653,92.4z M707.7,92.3c0-11.6-8.8-20.6-20.3-20.6c-11.6,0-20.3,8.9-20.3,20.6c0,11.8,8.7,20.7,20.3,20.7
		C698.9,113,707.7,104.1,707.7,92.3z"/>
	<path class="st2" d="M830.4,84.5v39.6h-14.3V86c0-9.4-5-14.3-12.1-14.3c-7.8,0-13.3,6-13.3,15.5v36.9h-14.5V86
		c0-9.4-5-14.3-12.1-14.3c-7.7,0-13.3,6-13.3,15.5v36.9h-14.3V61.6l13.8-2.1v8.2c4.3-5.5,10.5-8.7,17.9-8.7
		c8.1,0,14.6,3.7,18.5,10.5c4.5-6.7,11.9-10.5,20.7-10.5C821.3,59.1,830.4,68.6,830.4,84.5z"/>
	<path class="st2" d="M943,84.5v39.6h-14.3V86c0-9.4-5-14.3-12.1-14.3c-7.8,0-13.3,6-13.3,15.5v36.9h-14.5V86
		c0-9.4-5-14.3-12.1-14.3c-7.7,0-13.3,6-13.3,15.5v36.9H849V61.6l13.8-2.1v8.2c4.3-5.5,10.5-8.7,17.9-8.7c8.1,0,14.6,3.7,18.5,10.5
		c4.5-6.7,11.9-10.5,20.7-10.5C933.9,59.1,943,68.6,943,84.5z"/>
	<path class="st2" d="M1018,59.5v64.8h-13.8V117c-4.7,5.5-11.5,8.7-19.5,8.7c-14.6,0-24.3-9.9-24.3-26.4V61.6l14.3-2.1v38.1
		c0,9.9,5.7,15.3,13.8,15.3c8.8,0,15.1-6.4,15.1-16.3V61.6L1018,59.5z"/>
	<path class="st2" d="M1095.5,85.5v38.6h-14.3V87.2c0-10.1-5.7-15.5-13.9-15.5c-8.9,0-15.3,6.4-15.3,16.5v35.9h-14.3V61.6l13.8-2.1
		v8.2c4.7-5.5,11.6-8.7,19.7-8.7C1085.9,59.1,1095.5,69,1095.5,85.5z"/>
	<path class="st2" d="M1112.3,37.2c0-5.1,4.1-9.1,9.4-9.1s9.4,4,9.4,9.1c0,5.1-4.1,9.1-9.4,9.1S1112.3,42.3,1112.3,37.2z
		 M1114.5,61.8l14.3-2.3v64.6h-14.3V61.8z"/>
	<path class="st2" d="M1165.7,72.8v30.2c0,6,3.3,9.4,8.8,9.4c3,0,6.5-1,8.7-1.8v12.5c-2.6,1.1-6.8,2.1-11.4,2.1
		c-12.9,0-20.4-7.8-20.4-20.7V72.8h-9.7l2.1-12.2h7.5V47.7l14.3-7.8v20.7h17.5v12.2H1165.7z"/>
	<path class="st2" d="M1256.5,60.6l-44.3,95.4h-15.5l19.2-38.3l-26.1-57.1h15.5l17.9,42l17.9-42H1256.5z"/>
	<path class="st2" d="M1262.5,103.5h15.9l-15.2,41.3l-13.8,2L1262.5,103.5z"/>
	<path class="st2" d="M1340.5,48v12.6h13.8v12.2h-13.8v51.3H1326V72.8h-9.4l2.1-12.2h7.2V47.3c0-16.8,9.9-26.1,27-26.1h1.8v12.9
		h-1.7C1345,34.1,1340.5,38.8,1340.5,48z"/>
	<path class="st2" d="M1360.9,92.4c0-18.9,15.1-33.4,34.4-33.4c19.2,0,34.2,14.5,34.2,33.4c0,18.7-15.1,33.2-34.2,33.2
		C1376,125.7,1360.9,111.2,1360.9,92.4z M1415.6,92.3c0-11.6-8.8-20.6-20.3-20.6c-11.6,0-20.3,8.9-20.3,20.6
		c0,11.8,8.7,20.7,20.3,20.7C1406.8,113,1415.6,104.1,1415.6,92.3z"/>
	<path class="st2" d="M1479.1,59.5V73c-13.3,0-20.4,6.4-20.4,19.9v31.2h-14.3V61.6l13.5-2v10.5C1461.9,63.2,1468.8,59.5,1479.1,59.5
		z"/>
	<path class="st2" d="M1514.5,92.4c0-18.9,15.1-33.4,34.4-33.4c19.2,0,34.2,14.5,34.2,33.4c0,18.7-15.1,33.2-34.2,33.2
		C1529.6,125.7,1514.5,111.2,1514.5,92.4z M1569.2,92.3c0-11.6-8.8-20.6-20.3-20.6c-11.6,0-20.3,8.9-20.3,20.6
		c0,11.8,8.7,20.7,20.3,20.7C1560.4,113,1569.2,104.1,1569.2,92.3z"/>
	<path class="st2" d="M1654.3,59.5v64.8h-13.8V117c-4.7,5.5-11.5,8.7-19.5,8.7c-14.6,0-24.3-9.9-24.3-26.4V61.6l14.3-2.1v38.1
		c0,9.9,5.7,15.3,13.8,15.3c8.8,0,15.1-6.4,15.1-16.3V61.6L1654.3,59.5z"/>
	<path class="st2" d="M1708.7,59.5V73c-13.3,0-20.4,6.4-20.4,19.9v31.2h-14.3V61.6l13.5-2v10.5C1691.5,63.2,1698.4,59.5,1708.7,59.5
		z"/>
	<path class="st2" d="M1744.2,92.3c0-18.6,15.1-33.2,34.2-33.2c5.5,0,11.2,1.3,16.6,3.7l-2.1,12.9c-4.5-2.6-9.2-4-14.1-4
		c-11.9,0-20.4,9.1-20.4,20.6s8.5,20.7,20.6,20.7c5.3,0,10.1-1.7,14.6-4.3l2.1,12.9c-5.4,2.6-11.2,4-17.3,4
		C1759.4,125.7,1744.2,110.9,1744.2,92.3z"/>
	<path class="st2" d="M1803.8,92.4c0-18.9,15.1-33.4,34.4-33.4c19.2,0,34.2,14.5,34.2,33.4c0,18.7-15.1,33.2-34.2,33.2
		C1818.9,125.7,1803.8,111.2,1803.8,92.4z M1858.5,92.3c0-11.6-8.8-20.6-20.3-20.6c-11.6,0-20.3,8.9-20.3,20.6
		c0,11.8,8.7,20.7,20.3,20.7C1849.7,113,1858.5,104.1,1858.5,92.3z"/>
	<path class="st2" d="M1981.2,84.5v39.6h-14.3V86c0-9.4-5-14.3-12.1-14.3c-7.8,0-13.3,6-13.3,15.5v36.9h-14.5V86
		c0-9.4-5-14.3-12.1-14.3c-7.7,0-13.3,6-13.3,15.5v36.9h-14.3V61.6l13.8-2.1v8.2c4.3-5.5,10.5-8.7,17.9-8.7
		c8.1,0,14.6,3.7,18.5,10.5c4.5-6.7,11.9-10.5,20.7-10.5C1972.1,59.1,1981.2,68.6,1981.2,84.5z"/>
	<path class="st2" d="M2093.8,84.5v39.6h-14.3V86c0-9.4-5-14.3-12.1-14.3c-7.8,0-13.3,6-13.3,15.5v36.9h-14.5V86
		c0-9.4-5-14.3-12.1-14.3c-7.7,0-13.3,6-13.3,15.5v36.9h-14.3V61.6l13.8-2.1v8.2c4.3-5.5,10.5-8.7,17.9-8.7
		c8.1,0,14.6,3.7,18.5,10.5c4.5-6.7,11.9-10.5,20.7-10.5C2084.7,59.1,2093.8,68.6,2093.8,84.5z"/>
	<path class="st2" d="M2168.7,59.5v64.8H2155V117c-4.7,5.5-11.5,8.7-19.5,8.7c-14.6,0-24.3-9.9-24.3-26.4V61.6l14.3-2.1v38.1
		c0,9.9,5.7,15.3,13.8,15.3c8.8,0,15.1-6.4,15.1-16.3V61.6L2168.7,59.5z"/>
	<path class="st2" d="M2246.3,85.5v38.6h-14.3V87.2c0-10.1-5.7-15.5-13.9-15.5c-8.9,0-15.3,6.4-15.3,16.5v35.9h-14.3V61.6l13.8-2.1
		v8.2c4.7-5.5,11.6-8.7,19.7-8.7C2236.6,59.1,2246.3,69,2246.3,85.5z"/>
	<path class="st2" d="M2263,37.2c0-5.1,4.1-9.1,9.4-9.1s9.4,4,9.4,9.1c0,5.1-4.1,9.1-9.4,9.1S2263,42.3,2263,37.2z M2265.3,61.8
		l14.3-2.3v64.6h-14.3V61.8z"/>
	<path class="st2" d="M2316.4,72.8v30.2c0,6,3.3,9.4,8.8,9.4c3,0,6.5-1,8.7-1.8v12.5c-2.6,1.1-6.8,2.1-11.4,2.1
		c-12.9,0-20.4-7.8-20.4-20.7V72.8h-9.7l2.1-12.2h7.5V47.7l14.3-7.8v20.7h17.5v12.2H2316.4z"/>
	<path class="st2" d="M2407.3,60.6l-44.3,95.4h-15.5l19.2-38.3l-26.1-57.1h15.5l17.9,42l17.9-42H2407.3z"/>
	<path class="st2" d="M2406.7,115.2c0-5.8,4.8-10.4,10.6-10.4c6,0,10.7,4.5,10.7,10.4c0,5.8-4.7,10.2-10.7,10.2
		C2411.6,125.4,2406.7,121,2406.7,115.2z"/>
</g>
</svg>
