<?xml version="1.0" encoding="utf-8"?>
<!-- Generator: Adobe Illustrator 24.3.0, SVG Export Plug-In . SVG Version: 6.00 Build 0)  -->
<svg version="1.1" id="Layer_1" xmlns="http://www.w3.org/2000/svg" xmlns:xlink="http://www.w3.org/1999/xlink" x="0px" y="0px"
	 viewBox="0 0 197.1 197.1" style="enable-background:new 0 0 197.1 197.1;" xml:space="preserve">
<style type="text/css">
	.st0{fill:#FCE483;}
	.st1{fill:#FFFFFF;}
</style>
<circle class="st0" cx="98.6" cy="98.6" r="98.6"/>
<g>
	<g>
		<g>
			<path class="st1" d="M151.1,49.5H43.4c-6.3,0-11.5,5.2-11.5,11.5v76.5c0,6.3,5.1,11.5,11.5,11.5h107.6c6.3,0,11.5-5.1,11.5-11.5
				V61C162.5,54.7,157.4,49.5,151.1,49.5z M149.5,57.2l-52,52L45,57.2H149.5z M39.6,135.9V62.5l36.9,36.5L39.6,135.9z M45,141.3
				l36.9-36.9l12.9,12.8c1.5,1.5,3.9,1.5,5.4,0l12.6-12.6l36.7,36.7H45z M154.9,135.9l-36.7-36.7l36.7-36.7V135.9z"/>
		</g>
	</g>
	<g>
	</g>
	<g>
	</g>
	<g>
	</g>
	<g>
	</g>
	<g>
	</g>
	<g>
	</g>
	<g>
	</g>
	<g>
	</g>
	<g>
	</g>
	<g>
	</g>
	<g>
	</g>
	<g>
	</g>
	<g>
	</g>
	<g>
	</g>
	<g>
	</g>
</g>
</svg>
