<?xml version="1.0" encoding="utf-8"?>
<!-- Generator: Adobe Illustrator 24.3.0, SVG Export Plug-In . SVG Version: 6.00 Build 0)  -->
<svg version="1.1" id="Layer_1" xmlns="http://www.w3.org/2000/svg" xmlns:xlink="http://www.w3.org/1999/xlink" x="0px" y="0px"
	 viewBox="0 0 197.1 197.1" style="enable-background:new 0 0 197.1 197.1;" xml:space="preserve">
<style type="text/css">
	.st0{fill:#00B460;}
	.st1{fill:#FFFFFF;}
</style>
<circle class="st0" cx="98.6" cy="98.6" r="98.3"/>
<g>
	<g>
		<path id="Shape_6_" class="st1" d="M56.8,117.7c9-7.7,20.3-6.3,25.6,1.3c0.2,0.3,0.4,0.4,0.7,0c6.8-9.9,23.6-8,25.6,2.8
			c0.3,1.5,0.4,3,0.4,4.5c0,25.2,0.5,23.7-0.8,23.7c-13.5-0.1-13,0.4-13-0.7c0.1-20.4,0.1-20.1-0.4-22.4c-1.4-5.7-10.7-6.3-11.7,2.6
			c-0.7,5.8,0.7,20.5-0.8,20.5c-13.7-0.1-13.2,0.4-13.2-0.7c0-20.9,0.1-20.2-0.3-22c-1.2-6.1-11.8-6.7-11.9,2.5
			c-0.2,21.3,0.5,20.2-0.9,20.2c-13.5-0.1-13,0.4-13-0.7c0-39-0.4-36.1,0.7-36.1C59.5,113.2,56.8,111.5,56.8,117.7L56.8,117.7z"/>
		<path id="Shape_5_" class="st1" d="M131.7,134c-0.8,0-0.9,0.1-0.7,0.9c0.5,3.1,1.1,5.8,4.8,6.9c7.6,2.3,9.4-3,10.8-3
			c13.1,0,12.8-0.4,12.4,0.7c-4.3,12.6-20.6,13.7-29.5,10.3c-13.4-5-15.3-19.9-9.4-29.1c8.9-13.9,40-12.6,39.6,12.8
			c0,0.5-0.3,0.5-0.7,0.5C158.4,134,130.8,134,131.7,134z M146.8,126.2c-2.4-8.8-13.7-7.2-15.3-0.1c-0.1,0.5,0,0.6,0.5,0.5
			C147.8,126.6,146.9,126.8,146.8,126.2z"/>
		<path id="Shape_4_" class="st1" d="M167.2,56.3c-2.6-3.1-8.9-3.9-12.7-2.1c-4,1.8,1.8-1.4-25.5,17.7c-4.4,3.8-4.2,7.8-1.7,10.3
			c3.8,3.8,10.6,3.9,13.8,1.9c4.9-3,25.9-18.7,26.6-19.2C168.6,63.7,170.2,59.9,167.2,56.3L167.2,56.3z"/>
		<path id="Shape_3_" class="st1" d="M69.9,81.7c2.5-2.5,2.8-6.5-1.7-10.3c-27-19-21.6-15.9-25.5-17.7c-3.9-1.8-10.1-1-12.7,2.1
			c-3,3.6-1.4,7.4-0.4,8.7c0.6,0.4,21.5,16.1,26.5,19.2C59.3,85.5,66,85.5,69.9,81.7z"/>
		<path id="Shape_2_" class="st1" d="M98.7,77.4c4.9,0,9.1-2.2,10.3-6.3c0.4-1.5,0.2-1.7,0.3-16.6c0-0.1,0-0.3,0-0.4
			c0-5.7-4.7-8.3-10.5-8.3c-5.8,0-10.6,3.1-10.6,8.7c0,15.7-0.1,15.2,0.2,16.7C89.4,75.4,93.6,77.4,98.7,77.4z"/>
		<path id="Shape_1_" class="st1" d="M129.3,88.5c-7.9-3.9-18.2-6.3-31.8-6.3c-22.7,0-37.9,7.1-45.7,17.3h0.1l0,0l91.4,0
			C140,95.3,135.4,91.5,129.3,88.5z"/>
	</g>
</g>
</svg>
