<svg id="Layer_1" data-name="Layer 1" xmlns="http://www.w3.org/2000/svg" xmlns:xlink="http://www.w3.org/1999/xlink" viewBox="0 0 197.148 197.148"><defs><style>.cls-1{fill:none;}.cls-2{clip-path:url(#clip-path);}.cls-3{fill:url(#linear-gradient);}.cls-4{fill:#fff;}</style><clipPath id="clip-path" transform="translate(-1.42601 -1.426)"><rect class="cls-1" x="1.42601" y="1.426" width="197.14799" height="197.148"/></clipPath><linearGradient id="linear-gradient" x1="206.9156" y1="-277.17812" x2="479.17813" y2="-4.91559" gradientTransform="matrix(0.512, 0, 0, -0.512, -75.64, 27.78401)" gradientUnits="userSpaceOnUse"><stop offset="0" stop-color="#ffd521"/><stop offset="0.0551" stop-color="#ffd020"/><stop offset="0.1241" stop-color="#fec01e"/><stop offset="0.2004" stop-color="#fca71b"/><stop offset="0.2821" stop-color="#fa8316"/><stop offset="0.3681" stop-color="#f85510"/><stop offset="0.4563" stop-color="#f51e09"/><stop offset="0.5" stop-color="#f30005"/><stop offset="0.5035" stop-color="#f20007"/><stop offset="0.5966" stop-color="#e1003b"/><stop offset="0.6879" stop-color="#d30067"/><stop offset="0.7757" stop-color="#c70088"/><stop offset="0.8589" stop-color="#bf00a0"/><stop offset="0.9357" stop-color="#bb00af"/><stop offset="1" stop-color="#b900b4"/></linearGradient></defs><g class="cls-2"><path class="cls-3" d="M100,198.574h0A98.574,98.574,0,1,1,198.574,100,98.58469,98.58469,0,0,1,100,198.574Z" transform="translate(-1.42601 -1.426)"/></g><g class="cls-2"><path class="cls-4" d="M100,32.71339c-18.27562,0-20.56253.07886-27.73872.414a49.46006,49.46006,0,0,0-16.34358,3.13466A32.48111,32.48111,0,0,0,44.01,44.01a33.11992,33.11992,0,0,0-7.76763,11.92745A49.75375,49.75375,0,0,0,33.10769,72.281c-.33515,7.17618-.414,9.4631-.414,27.73872s.07886,20.56253.414,27.73872A49.4602,49.4602,0,0,0,36.24234,144.102a34.5229,34.5229,0,0,0,19.69509,19.65566A49.75339,49.75339,0,0,0,72.281,166.89234c7.17618.33514,9.4631.414,27.73872.414s20.56253-.07887,27.73872-.414a49.46006,49.46006,0,0,0,16.34358-3.13466,34.52294,34.52294,0,0,0,19.65567-19.6951,49.75352,49.75352,0,0,0,3.13465-16.34357c.33515-7.17619.414-9.46311.414-27.73873s-.07887-20.56254-.414-27.73872A49.46015,49.46015,0,0,0,163.75769,55.898a34.523,34.523,0,0,0-19.6951-19.65565A49.75366,49.75366,0,0,0,127.719,33.10769C120.56255,32.79225,118.27564,32.71339,100,32.71339Zm0,12.1246c17.96017,0,20.08939.05914,27.18672.3943,6.565.29571,10.1334,1.39975,12.49919,2.32635a22.25272,22.25272,0,0,1,12.75547,12.75547c.9266,2.36578,2.01092,5.93416,2.32635,12.49918.31543,7.09733.39429,9.22653.39429,27.18671s-.05913,20.08939-.39429,27.18672c-.29573,6.565-1.39975,10.13341-2.32635,12.49919a22.25277,22.25277,0,0,1-12.75547,12.75548c-2.36579.92659-5.93416,2.01091-12.49919,2.32634-7.09733.31543-9.22653.39429-27.18671.39429s-20.08939-.05913-27.18671-.39429c-6.565-.29572-10.13341-1.39975-12.49918-2.32634a22.25275,22.25275,0,0,1-12.75548-12.75548c-.9266-2.36578-2.01091-5.93415-2.32635-12.49919-.31544-7.09733-.3943-9.22653-.3943-27.18671s.05915-20.08939.3943-27.18671c.29572-6.565,1.39975-10.13341,2.32635-12.49917A22.25265,22.25265,0,0,1,60.31413,47.55864c2.36577-.9266,5.93415-2.01091,12.49918-2.32635,7.09732-.33516,9.22652-.3943,27.1867-.3943" transform="translate(-1.42601 -1.426)"/></g><g class="cls-2"><path class="cls-4" d="M100,122.43544A22.43544,22.43544,0,1,1,122.43545,100,22.43544,22.43544,0,0,1,100,122.43544ZM100,65.44A34.56005,34.56005,0,1,0,134.56005,100,34.564,34.564,0,0,0,100,65.44Z" transform="translate(-1.42601 -1.426)"/></g><g class="cls-2"><circle class="cls-4" cx="134.49438" cy="62.65364" r="8.08306"/></g></svg>