<?xml version="1.0" encoding="utf-8"?>
<!-- Generator: Adobe Illustrator 24.3.0, SVG Export Plug-In . SVG Version: 6.00 Build 0)  -->
<svg version="1.1" id="Layer_1" xmlns="http://www.w3.org/2000/svg" xmlns:xlink="http://www.w3.org/1999/xlink" x="0px" y="0px"
	 viewBox="0 0 1200.6 458.6" style="enable-background:new 0 0 1200.6 458.6;" xml:space="preserve">
<style type="text/css">
	.st0{enable-background:new    ;}
	.st1{fill:#FCE483;}
	.st2{fill:none;stroke:#F1897F;stroke-width:7;stroke-miterlimit:10;}
</style>
<g class="st0">
	<path class="st1" d="M92.8,194.7l-47.5-65.9v65.9H21.3V37.2h37.8c34.9,0,56.5,20.9,56.5,49.3c0,23.6-15.5,41.4-39.8,46.6l46.6,61.7
		H92.8z M45.4,117.6h11.9c20.9,0,33.5-12.4,33.5-29.9c0-17.1-12.6-29.3-33.5-29.3H45.4V117.6z"/>
</g>
<g class="st0">
	<path class="st2" d="M92.8,194.7l-47.5-65.9v65.9H21.3V37.2h37.8c34.9,0,56.5,20.9,56.5,49.3c0,23.6-15.5,41.4-39.8,46.6l46.6,61.7
		H92.8z M45.4,117.6h11.9c20.9,0,33.5-12.4,33.5-29.9c0-17.1-12.6-29.3-33.5-29.3H45.4V117.6z"/>
</g>
<g class="st0">
	<path class="st1" d="M197.4,194.7l-0.7-6.8c-6.8,5.8-15.5,9.2-25.4,9.2c-21.2,0-37.6-15.8-37.6-36.2s16.2-36.2,38-36.2
		c9.5,0,17.3,3.4,23.6,8.3v-5.2c0-12.2-5.6-18.5-21.8-18.5c-8.6,0-16.4,1.8-24.3,4.5l3.2-18.2c8.3-2.5,16.2-3.6,24.3-3.6
		c26.3,0,40.3,11.9,40.3,34.2v49.5l0.9,18.9H197.4z M196.5,160.8c0-11-9.2-19.6-20.7-19.6c-11.5,0-20.5,8.6-20.5,19.6
		s9,19.4,20.5,19.4C187.5,180.1,196.5,171.6,196.5,160.8z"/>
	<path class="st1" d="M395,132v62.8h-22.7v-60.3c0-14.9-7.9-22.7-19.1-22.7c-12.4,0-21.2,9.5-21.2,24.5v58.5h-23v-60.3
		c0-14.9-7.9-22.7-19.1-22.7c-12.1,0-21.2,9.5-21.2,24.5v58.5H246v-99l21.8-3.4v13.1c6.8-8.8,16.7-13.7,28.4-13.7
		c12.8,0,23.2,5.8,29.3,16.7c7.2-10.6,18.9-16.7,32.9-16.7C380.6,91.7,395,106.8,395,132z"/>
	<path class="st1" d="M417.7,187.5l3.1-18.5c9.9,6.3,18.9,9.9,28.1,9.9c9,0,14.9-4.7,14.9-12.6c0-5.9-3.1-9.9-15.5-14l-4-1.4
		c-15.5-5.2-24.3-15.8-24.3-30.2c0-16.9,13.3-29.5,33.1-29.5c9.2,0,19.4,2.9,28.6,7.4l-3.4,18.5c-9-5.2-18.5-7.9-24.8-7.9
		c-8.3,0-12.6,4.7-12.6,10.8c0,5.2,2.7,9,13.5,12.8l4.5,1.6c17.3,5.6,26.6,16.2,26.6,31.5c0,18.5-14,31.3-35.1,31.3
		C439.1,197.4,427.4,193.4,417.7,187.5z"/>
	<path class="st1" d="M615,144.1c0,30.6-23.9,53.1-55.1,53.1c-30.8,0-54-21.6-54-53.8V35l23-3.4v74.9c8.3-9.2,20.3-14.9,34.4-14.9
		C592.1,91.7,615,114.2,615,144.1z M592.8,144.3c0-18.5-13.7-32.6-32-32.6c-18.5,0-32.6,14.2-32.6,33.1c0,18.2,13.5,32.4,32,32.4
		C578.6,177.2,592.8,163.2,592.8,144.3z"/>
</g>
<g class="st0">
	<path class="st2" d="M197.4,194.7l-0.7-6.8c-6.8,5.8-15.5,9.2-25.4,9.2c-21.2,0-37.6-15.8-37.6-36.2s16.2-36.2,38-36.2
		c9.5,0,17.3,3.4,23.6,8.3v-5.2c0-12.2-5.6-18.5-21.8-18.5c-8.6,0-16.4,1.8-24.3,4.5l3.2-18.2c8.3-2.5,16.2-3.6,24.3-3.6
		c26.3,0,40.3,11.9,40.3,34.2v49.5l0.9,18.9H197.4z M196.5,160.8c0-11-9.2-19.6-20.7-19.6c-11.5,0-20.5,8.6-20.5,19.6
		s9,19.4,20.5,19.4C187.5,180.1,196.5,171.6,196.5,160.8z"/>
	<path class="st2" d="M395,132v62.8h-22.7v-60.3c0-14.9-7.9-22.7-19.1-22.7c-12.4,0-21.2,9.5-21.2,24.5v58.5h-23v-60.3
		c0-14.9-7.9-22.7-19.1-22.7c-12.1,0-21.2,9.5-21.2,24.5v58.5H246v-99l21.8-3.4v13.1c6.8-8.8,16.7-13.7,28.4-13.7
		c12.8,0,23.2,5.8,29.3,16.7c7.2-10.6,18.9-16.7,32.9-16.7C380.6,91.7,395,106.8,395,132z"/>
	<path class="st2" d="M417.7,187.5l3.1-18.5c9.9,6.3,18.9,9.9,28.1,9.9c9,0,14.9-4.7,14.9-12.6c0-5.9-3.1-9.9-15.5-14l-4-1.4
		c-15.5-5.2-24.3-15.8-24.3-30.2c0-16.9,13.3-29.5,33.1-29.5c9.2,0,19.4,2.9,28.6,7.4l-3.4,18.5c-9-5.2-18.5-7.9-24.8-7.9
		c-8.3,0-12.6,4.7-12.6,10.8c0,5.2,2.7,9,13.5,12.8l4.5,1.6c17.3,5.6,26.6,16.2,26.6,31.5c0,18.5-14,31.3-35.1,31.3
		C439.1,197.4,427.4,193.4,417.7,187.5z"/>
	<path class="st2" d="M615,144.1c0,30.6-23.9,53.1-55.1,53.1c-30.8,0-54-21.6-54-53.8V35l23-3.4v74.9c8.3-9.2,20.3-14.9,34.4-14.9
		C592.1,91.7,615,114.2,615,144.1z M592.8,144.3c0-18.5-13.7-32.6-32-32.6c-18.5,0-32.6,14.2-32.6,33.1c0,18.2,13.5,32.4,32,32.4
		C578.6,177.2,592.8,163.2,592.8,144.3z"/>
</g>
<g class="st0">
	<path class="st1" d="M630.8,144.6c0-29.9,23.9-52.9,54.5-52.9c30.4,0,54.2,23,54.2,52.9c0,29.7-23.9,52.7-54.2,52.7
		C654.6,197.2,630.8,174.3,630.8,144.6z M717.4,144.3c0-18.5-14-32.6-32.2-32.6c-18.5,0-32.2,14.2-32.2,32.6
		c0,18.7,13.7,32.9,32.2,32.9C703.5,177.2,717.4,163,717.4,144.3z"/>
</g>
<g class="st0">
	<path class="st2" d="M630.8,144.6c0-29.9,23.9-52.9,54.5-52.9c30.4,0,54.2,23,54.2,52.9c0,29.7-23.9,52.7-54.2,52.7
		C654.6,197.2,630.8,174.3,630.8,144.6z M717.4,144.3c0-18.5-14-32.6-32.2-32.6c-18.5,0-32.2,14.2-32.2,32.6
		c0,18.7,13.7,32.9,32.2,32.9C703.5,177.2,717.4,163,717.4,144.3z"/>
</g>
<g class="st0">
	<path class="st1" d="M860.3,113.5v47.9c0,9.5,5.2,14.9,14,14.9c4.7,0,10.4-1.6,13.7-2.9v19.8c-4.1,1.8-10.8,3.4-18,3.4
		c-20.5,0-32.4-12.4-32.4-32.9v-50.2h-50.2v47.9c0,9.5,5.2,14.9,14,14.9c4.7,0,10.4-1.6,13.7-2.9v19.8c-4,1.8-10.8,3.4-18,3.4
		c-20.5,0-32.4-12.4-32.4-32.9v-50.2h-15.3l3.4-19.4h11.9V73.7l22.7-12.4v32.9h50.2V73.7l22.7-12.4v32.9H888v19.4H860.3z"/>
</g>
<g class="st0">
	<path class="st2" d="M860.3,113.5v47.9c0,9.5,5.2,14.9,14,14.9c4.7,0,10.4-1.6,13.7-2.9v19.8c-4.1,1.8-10.8,3.4-18,3.4
		c-20.5,0-32.4-12.4-32.4-32.9v-50.2h-50.2v47.9c0,9.5,5.2,14.9,14,14.9c4.7,0,10.4-1.6,13.7-2.9v19.8c-4,1.8-10.8,3.4-18,3.4
		c-20.5,0-32.4-12.4-32.4-32.9v-50.2h-15.3l3.4-19.4h11.9V73.7l22.7-12.4v32.9h50.2V73.7l22.7-12.4v32.9H888v19.4H860.3z"/>
</g>
<g class="st0">
	<path class="st1" d="M902.1,144.6c0-29.9,23.9-52.9,54.5-52.9c30.4,0,54.2,23,54.2,52.9c0,29.7-23.9,52.7-54.2,52.7
		C926,197.2,902.1,174.3,902.1,144.6z M988.8,144.3c0-18.5-14-32.6-32.2-32.6c-18.5,0-32.2,14.2-32.2,32.6
		c0,18.7,13.7,32.9,32.2,32.9C974.8,177.2,988.8,163,988.8,144.3z"/>
	<path class="st1" d="M1183.2,132v62.8h-22.7v-60.3c0-14.9-7.9-22.7-19.1-22.7c-12.4,0-21.2,9.5-21.2,24.5v58.5h-23v-60.3
		c0-14.9-7.9-22.7-19.1-22.7c-12.2,0-21.2,9.5-21.2,24.5v58.5h-22.7v-99l21.8-3.4v13.1c6.8-8.8,16.7-13.7,28.4-13.7
		c12.8,0,23.2,5.8,29.3,16.7c7.2-10.6,18.9-16.7,32.9-16.7C1168.8,91.7,1183.2,106.8,1183.2,132z"/>
</g>
<g class="st0">
	<path class="st2" d="M902.1,144.6c0-29.9,23.9-52.9,54.5-52.9c30.4,0,54.2,23,54.2,52.9c0,29.7-23.9,52.7-54.2,52.7
		C926,197.2,902.1,174.3,902.1,144.6z M988.8,144.3c0-18.5-14-32.6-32.2-32.6c-18.5,0-32.2,14.2-32.2,32.6
		c0,18.7,13.7,32.9,32.2,32.9C974.8,177.2,988.8,163,988.8,144.3z"/>
	<path class="st2" d="M1183.2,132v62.8h-22.7v-60.3c0-14.9-7.9-22.7-19.1-22.7c-12.4,0-21.2,9.5-21.2,24.5v58.5h-23v-60.3
		c0-14.9-7.9-22.7-19.1-22.7c-12.2,0-21.2,9.5-21.2,24.5v58.5h-22.7v-99l21.8-3.4v13.1c6.8-8.8,16.7-13.7,28.4-13.7
		c12.8,0,23.2,5.8,29.3,16.7c7.2-10.6,18.9-16.7,32.9-16.7C1168.8,91.7,1183.2,106.8,1183.2,132z"/>
</g>
<g class="st0">
	<path class="st1" d="M413.5,292.7c0,31.5-25.2,54.2-59.9,54.2h-15.8v48.8h-24.1V238.2h39.8C388.3,238.2,413.5,261.2,413.5,292.7z
		 M388.7,292.7c0-19.1-15.1-32.9-36.5-32.9h-14.4v65.5h14.4C373.6,325.3,388.7,311.6,388.7,292.7z"/>
</g>
<g class="st0">
	<path class="st2" d="M413.5,292.7c0,31.5-25.2,54.2-59.9,54.2h-15.8v48.8h-24.1V238.2h39.8C388.3,238.2,413.5,261.2,413.5,292.7z
		 M388.7,292.7c0-19.1-15.1-32.9-36.5-32.9h-14.4v65.5h14.4C373.6,325.3,388.7,311.6,388.7,292.7z"/>
</g>
<g class="st0">
	<path class="st1" d="M486.1,395.7l-0.7-6.8c-6.8,5.8-15.5,9.2-25.4,9.2c-21.2,0-37.6-15.8-37.6-36.2s16.2-36.2,38-36.2
		c9.5,0,17.3,3.4,23.6,8.3v-5.2c0-12.2-5.6-18.5-21.8-18.5c-8.6,0-16.4,1.8-24.3,4.5l3.2-18.2c8.3-2.5,16.2-3.6,24.3-3.6
		c26.3,0,40.3,11.9,40.3,34.2v49.5l0.9,18.9H486.1z M485.2,361.8c0-11-9.2-19.6-20.7-19.6s-20.5,8.6-20.5,19.6s9,19.4,20.5,19.4
		C476.2,381.1,485.2,372.6,485.2,361.8z"/>
</g>
<g class="st0">
	<path class="st2" d="M486.1,395.7l-0.7-6.8c-6.8,5.8-15.5,9.2-25.4,9.2c-21.2,0-37.6-15.8-37.6-36.2s16.2-36.2,38-36.2
		c9.5,0,17.3,3.4,23.6,8.3v-5.2c0-12.2-5.6-18.5-21.8-18.5c-8.6,0-16.4,1.8-24.3,4.5l3.2-18.2c8.3-2.5,16.2-3.6,24.3-3.6
		c26.3,0,40.3,11.9,40.3,34.2v49.5l0.9,18.9H486.1z M485.2,361.8c0-11-9.2-19.6-20.7-19.6s-20.5,8.6-20.5,19.6s9,19.4,20.5,19.4
		C476.2,381.1,485.2,372.6,485.2,361.8z"/>
</g>
<g class="st0">
	<path class="st1" d="M626.5,334.5v61.2h-22.7v-58.5c0-16-9-24.5-22.1-24.5c-14.2,0-24.3,10.1-24.3,26.1v56.9h-22.7v-99l21.8-3.4
		v13.1c7.4-8.8,18.5-13.7,31.3-13.7C611.2,292.7,626.5,308.4,626.5,334.5z"/>
</g>
<g class="st0">
	<path class="st2" d="M626.5,334.5v61.2h-22.7v-58.5c0-16-9-24.5-22.1-24.5c-14.2,0-24.3,10.1-24.3,26.1v56.9h-22.7v-99l21.8-3.4
		v13.1c7.4-8.8,18.5-13.7,31.3-13.7C611.2,292.7,626.5,308.4,626.5,334.5z"/>
</g>
<g class="st0">
	<path class="st1" d="M681.7,314.5v47.9c0,9.5,5.2,14.9,14,14.9c4.7,0,10.4-1.6,13.7-2.9v19.8c-4,1.8-10.8,3.4-18,3.4
		c-20.5,0-32.4-12.4-32.4-32.9v-50.2h-15.3l3.4-19.4h11.9v-20.5l22.7-12.4v32.9h27.7v19.4H681.7z"/>
</g>
<g class="st0">
	<path class="st2" d="M681.7,314.5v47.9c0,9.5,5.2,14.9,14,14.9c4.7,0,10.4-1.6,13.7-2.9v19.8c-4,1.8-10.8,3.4-18,3.4
		c-20.5,0-32.4-12.4-32.4-32.9v-50.2h-15.3l3.4-19.4h11.9v-20.5l22.7-12.4v32.9h27.7v19.4H681.7z"/>
</g>
<g class="st0">
	<path class="st1" d="M787.2,293.4v21.4c-21.2,0-32.4,10.1-32.4,31.5v49.5H732v-99l21.4-3.1v16.7C759.9,299.2,771,293.4,787.2,293.4
		z"/>
</g>
<g class="st0">
	<path class="st2" d="M787.2,293.4v21.4c-21.2,0-32.4,10.1-32.4,31.5v49.5H732v-99l21.4-3.1v16.7C759.9,299.2,771,293.4,787.2,293.4
		z"/>
</g>
<g class="st0">
	<path class="st1" d="M903.9,295.2l-70.2,151.2h-24.5l30.4-60.8l-41.4-90.5h24.5l28.4,66.6l28.4-66.6H903.9z"/>
</g>
<g class="st0">
	<path class="st2" d="M903.9,295.2l-70.2,151.2h-24.5l30.4-60.8l-41.4-90.5h24.5l28.4,66.6l28.4-66.6H903.9z"/>
</g>
</svg>
