<?xml version="1.0" encoding="utf-8"?>
<!-- Generator: Adobe Illustrator 26.0.1, SVG Export Plug-In . SVG Version: 6.00 Build 0)  -->
<svg version="1.1" id="Layer_1" xmlns="http://www.w3.org/2000/svg" xmlns:xlink="http://www.w3.org/1999/xlink" x="0px" y="0px"
	 viewBox="0 0 197.1 197.1" style="enable-background:new 0 0 197.1 197.1;" xml:space="preserve">
<style type="text/css">
	.st0{fill:#FFFFFF;}
	.st1{fill:#1DA1F2;}
</style>
<g>
	<g>
		<g>
			<path class="st0" d="M151.1,49.5H43.4c-6.3,0-11.5,5.2-11.5,11.5v76.5c0,6.3,5.1,11.5,11.5,11.5H151c6.3,0,11.5-5.1,11.5-11.5V61
				C162.5,54.7,157.4,49.5,151.1,49.5z M149.5,57.2l-52,52L45,57.2H149.5z M39.6,135.9V62.5L76.5,99L39.6,135.9z M45,141.3
				l36.9-36.9l12.9,12.8c1.5,1.5,3.9,1.5,5.4,0l12.6-12.6l36.7,36.7H45z M154.9,135.9l-36.7-36.7l36.7-36.7V135.9z"/>
		</g>
	</g>
</g>
<g>
	<circle id="XMLID_3_" class="st1" cx="98.6" cy="98.6" r="98.6"/>
	<path id="XMLID_2_" class="st0" d="M77.1,145.6c43.7,0,67.6-36.2,67.6-67.6c0-1,0-2.1-0.1-3.1c4.6-3.4,8.7-7.5,11.9-12.3
		c-4.3,1.9-8.8,3.2-13.6,3.7c4.9-2.9,8.7-7.6,10.4-13.1c-4.6,2.7-9.7,4.7-15.1,5.8c-4.3-4.6-10.5-7.5-17.3-7.5
		c-13.1,0-23.8,10.6-23.8,23.8c0,1.9,0.2,3.7,0.6,5.4c-19.7-1-37.3-10.4-49-24.8c-2,3.5-3.2,7.6-3.2,11.9c0,8.2,4.2,15.5,10.6,19.8
		c-3.9-0.1-7.6-1.2-10.8-3c0,0.1,0,0.2,0,0.3c0,11.5,8.2,21.1,19.1,23.3c-2,0.5-4.1,0.8-6.3,0.8c-1.5,0-3-0.2-4.5-0.4
		c3,9.4,11.8,16.3,22.2,16.5c-8.1,6.4-18.4,10.2-29.5,10.2c-1.9,0-3.8-0.1-5.7-0.3C51.2,141.7,63.7,145.6,77.1,145.6"/>
</g>
</svg>
